<svg width="112" height="24" viewBox="0 0 112 24" fill="none" xmlns="http://www.w3.org/2000/svg">
<g clip-path="url(#clip0_117_148)">
<path d="M64.115 4.97877C63.5235 4.99656 62.9298 5.01212 62.3405 4.97432C61.8735 4.94319 61.7112 5.04993 61.7179 5.56582C61.749 8.0919 61.7312 10.618 61.7312 13.1441V14.0602C61.6912 14.0669 61.6489 14.0736 61.6089 14.0802C61.5577 14.0068 61.5022 13.9357 61.4532 13.8601C59.89 11.4096 58.309 8.96802 56.7702 6.50198C55.7651 4.89205 55.7918 4.88537 53.8861 4.9721C53.5748 4.98544 53.5281 5.0944 53.5281 5.36569C53.5348 9.80857 53.537 14.2537 53.5259 18.6966C53.5259 19.0323 53.6504 19.0901 53.9462 19.0812C54.5754 19.0635 55.2047 19.0457 55.8318 19.0857C56.2788 19.1146 56.3788 18.9634 56.3744 18.5364C56.3544 15.8814 56.3633 13.2263 56.3677 10.5713C56.3677 10.3845 56.321 10.1821 56.4611 9.95978C56.6145 10.1821 56.7435 10.3578 56.8569 10.5379C58.3223 12.8528 59.7899 15.1698 61.2509 17.4869C61.9387 18.5765 62.8942 19.1079 64.1172 19.0812C64.4129 19.0746 64.5352 19.0234 64.5352 18.6921C64.5241 14.2492 64.5241 9.80412 64.5352 5.36124C64.5352 5.02547 64.4085 4.96543 64.115 4.97432V4.97877Z" fill="#FEFEFE"/>
<path d="M47.7822 5.0566C46.4102 4.77864 45.0315 4.7653 43.6528 4.98544C41.8828 5.27007 40.7265 6.24181 40.1972 7.97627C39.8059 9.25932 39.7436 10.5735 39.7258 12.477C39.7436 13.2197 39.7503 14.5494 40.1083 15.8391C40.5886 17.578 41.636 18.7232 43.5016 19.0212C44.7891 19.228 46.0655 19.2035 47.3552 19.0434C49.2653 18.8077 50.455 17.7626 50.8953 15.9259C51.5491 13.1952 51.5646 10.4534 50.7797 7.74723C50.3527 6.27294 49.3098 5.36346 47.7822 5.0566ZM48.3025 14.6828C48.0401 15.9348 47.4442 16.4618 46.1745 16.6152C45.5251 16.693 44.8803 16.6641 44.2488 16.5196C43.5928 16.3684 43.1525 15.9414 42.9257 15.3121C42.4476 14.0002 42.5388 12.6304 42.5499 11.2717C42.5543 10.4823 42.6322 9.69738 42.8656 8.93689C43.1169 8.12525 43.6395 7.62938 44.4889 7.4715C45.245 7.33141 45.9966 7.33363 46.7393 7.5004C47.5087 7.67385 47.9756 8.18752 48.198 8.93244C48.4737 9.85971 48.4804 10.8181 48.5137 11.4897C48.5249 12.7483 48.5026 13.7222 48.3025 14.6828Z" fill="#FEFEFE"/>
<path d="M20.0641 9.41723C19.1702 8.56334 18.2852 7.70056 17.3935 6.84445C15.0787 4.61857 12.7594 2.39935 10.4534 0.166791C10.2266 -0.0511276 10.1043 -0.0600222 9.88196 0.166791C9.21041 0.85168 8.51886 1.51878 7.8273 2.18365C5.29677 4.61189 2.76624 7.03569 0.233485 9.45948C0.0756046 9.60847 0 9.7619 0 9.98649C0.00889465 11.3674 0.00444733 12.7483 0.00444733 14.2937C1.10294 13.2419 2.08802 12.3035 3.06866 11.3629C5.33235 9.19264 7.60048 7.02679 9.85083 4.84093C10.1332 4.5652 10.2667 4.64303 10.4979 4.86762C12.9328 7.23359 15.3744 9.5929 17.8182 11.9478C18.621 12.7216 19.4393 13.4821 20.3265 14.3226C20.3265 12.7638 20.3221 11.314 20.331 9.86419C20.331 9.64404 20.1975 9.5462 20.0641 9.41723Z" fill="#FEFEFE"/>
<path d="M98.3549 4.97649C97.7456 5.00095 97.1318 5.02096 96.5248 4.97204C96.0222 4.93201 95.92 5.10324 95.9244 5.58132C95.9489 8.53212 95.9422 11.4807 95.9333 14.4315C95.9288 15.7568 95.3707 16.3794 94.0499 16.564C93.7941 16.5996 93.5362 16.6463 93.2805 16.6374C91.3815 16.5662 90.492 16.0392 90.5631 14.0957C90.6054 12.8994 90.572 11.6986 90.572 10.5001C90.572 8.8212 90.572 7.14456 90.572 5.46569C90.572 5.24333 90.661 4.96759 90.2518 4.97649C89.5114 4.99428 88.7731 4.98983 88.0326 4.97649C87.768 4.97204 87.7369 5.09879 87.7391 5.31671C87.7502 8.56103 87.7035 11.8076 87.7791 15.0497C87.8303 17.2689 88.782 18.3585 90.9345 18.9122C92.2198 19.2435 93.534 19.2146 94.8393 19.0567C97.3876 18.7499 98.744 17.389 98.7551 14.8118C98.7618 13.3375 98.7551 11.8632 98.7551 10.3889H98.7907C98.7907 8.73003 98.7818 7.06895 98.7974 5.4101C98.7996 5.06988 98.6995 4.96092 98.3593 4.97426L98.3549 4.97649Z" fill="#FEFEFE"/>
<path d="M17.6404 16.335C17.0422 15.7858 16.4463 15.2321 15.8793 14.6539C15.6324 14.4004 15.4968 14.3826 15.2299 14.645C13.6978 16.1393 12.1346 17.6025 10.6025 19.0946C10.2756 19.4126 10.071 19.4615 9.73082 19.1035C9.1082 18.4497 8.42776 17.8493 7.78067 17.2178C7.14248 16.5952 7.16027 16.6041 7.82959 15.9748C9.3061 14.5828 10.7626 13.1685 12.2436 11.781C12.5148 11.5252 12.5037 11.3763 12.2369 11.1361C11.6209 10.5802 11.0317 9.99536 10.4291 9.42388C10.3512 9.3505 10.2601 9.28823 10.1578 9.20374C10.0355 9.31047 9.92428 9.40387 9.81977 9.50393C7.42266 11.8032 5.03444 14.1091 2.62177 16.3928C2.35048 16.6508 2.44165 16.7508 2.63956 16.9399C3.32445 17.5847 4.00044 18.2407 4.67866 18.8922C6.38198 20.5266 8.09198 22.1588 9.78641 23.8021C10.0466 24.0534 10.22 24.08 10.4913 23.8154C12.8729 21.5006 15.2633 19.1947 17.6626 16.8954C17.9072 16.6619 17.8561 16.5352 17.6404 16.3372V16.335Z" fill="#FEFEFE"/>
<path d="M107.79 12.537C107.616 12.2635 107.59 12.0611 107.759 11.7921C108.621 10.4134 109.475 9.03029 110.327 7.64272C110.854 6.77994 111.368 5.91049 111.924 4.98322C111.261 4.98322 110.681 5.04104 110.12 4.96988C109.182 4.8498 108.519 5.09663 108.228 6.05725C108.177 6.22625 108.043 6.37079 107.952 6.52867C107.338 7.5938 106.727 8.66116 106.084 9.78411C105.135 8.26535 104.227 6.81774 103.327 5.36791C103.176 5.12331 103.029 4.95654 102.684 4.96988C101.817 5.00323 100.948 4.981 99.9758 4.981C100.08 5.16556 100.136 5.27675 100.203 5.38126C101.488 7.44037 102.769 9.50393 104.067 11.5541C104.283 11.8921 104.274 12.1323 104.056 12.4814C102.753 14.5561 101.488 16.6508 100.198 18.7344C100.045 18.9834 100.031 19.0835 100.367 19.079C101.181 19.0701 101.995 19.0635 102.809 19.0812C103.105 19.0879 103.225 18.9345 103.351 18.7077C104.154 17.2779 104.97 15.8547 105.811 14.3804C105.969 14.6117 106.109 14.8029 106.233 15.003C107 16.2372 107.765 17.4713 108.532 18.7055C108.628 18.8589 108.704 19.0635 108.917 19.0657C109.882 19.0746 110.847 19.0701 111.85 19.0701C111.801 18.9412 111.788 18.8856 111.761 18.8411C110.443 16.7353 109.131 14.6273 107.796 12.5326L107.79 12.537Z" fill="#FEFEFE"/>
<path d="M76.2117 5.58582C76.2251 5.29674 76.1228 5.19668 75.8426 5.17889C73.7968 5.05436 71.7488 4.89426 69.7008 5.02546C67.9486 5.13886 66.9279 6.18621 66.8834 7.93845C66.8412 9.68848 66.8745 11.4407 66.8745 13.1907H66.859C66.859 14.9786 66.8701 16.7664 66.8501 18.5542C66.8456 18.9411 66.9012 19.119 67.3504 19.0879C67.9753 19.0434 68.609 19.0545 69.2361 19.0857C69.603 19.1035 69.7053 18.9878 69.6986 18.6276C69.6786 17.1711 69.7075 15.7146 69.6808 14.2603C69.6719 13.8067 69.7475 13.6355 70.2679 13.6377C71.7444 13.6488 73.2209 13.5732 74.6996 13.5465C75.1355 13.5399 75.3845 13.4487 75.3111 12.9261C75.2533 12.5281 75.2778 12.1145 75.3067 11.712C75.3334 11.3562 75.2244 11.2495 74.853 11.245C73.2654 11.225 71.6777 11.1605 70.09 11.1339C69.7809 11.1294 69.6719 11.0538 69.6853 10.7336C69.7097 10.1087 69.6808 9.47945 69.6942 8.8546C69.7142 7.94735 70.0766 7.59379 70.9905 7.58712C72.1002 7.57822 73.2098 7.59823 74.3194 7.58044C74.9398 7.56933 75.8159 7.86063 76.1161 7.46481C76.4296 7.05121 76.185 6.22846 76.2139 5.58582H76.2117Z" fill="#FEFEFE"/>
<path d="M37.8935 5.38575C36.2013 4.97882 34.4957 4.70976 32.7457 4.92323C31.1247 5.12114 29.995 5.93278 29.3724 7.4671C28.7743 8.93695 28.7743 10.4779 28.7053 12.0367C28.7587 13.4154 28.7832 14.8119 29.2012 16.1683C29.6704 17.6893 30.5554 18.7322 32.2165 19.0168C33.9732 19.317 35.7099 19.188 37.4399 18.8589C38.3049 18.6944 38.3004 18.6655 38.3004 17.7693C38.3004 17.4736 38.276 17.1778 38.3071 16.8843C38.3449 16.5219 38.1959 16.4529 37.8646 16.493C36.6349 16.6397 35.3985 16.6753 34.16 16.6442C32.679 16.6064 32.0275 16.126 31.754 14.6629C31.4271 12.8973 31.4093 11.1072 31.7695 9.33943C32.043 7.99411 32.6212 7.5138 34.0043 7.40039C35.0739 7.31145 36.1435 7.40039 37.2042 7.5516C38.3027 7.70726 38.3004 7.72282 38.3004 6.63101C38.3004 6.39085 38.2737 6.14847 38.3071 5.91276C38.3538 5.57477 38.1737 5.45246 37.8935 5.38575Z" fill="#FEFEFE"/>
<path d="M86.1048 16.5263C84.8484 16.5441 83.5898 16.5574 82.3334 16.5263C80.9792 16.4929 80.8147 16.0193 80.8213 15.012C80.848 11.8433 80.8236 8.67232 80.8391 5.5036C80.8391 5.11001 80.7746 4.94102 80.3344 4.97215C79.7451 5.0144 79.1492 5.00995 78.5599 4.97215C78.1085 4.94324 77.9595 5.06999 77.9684 5.54363C77.9973 7.27586 77.9795 9.0081 77.9795 11.0961C78.0329 12.6549 77.8817 14.5717 78.0551 16.4841C78.1885 17.9561 78.9868 18.8145 80.4478 18.9812C82.3801 19.2014 84.3236 19.0324 86.2627 19.0813C86.554 19.088 86.5317 18.9056 86.5317 18.7188C86.5317 18.1296 86.5095 17.5381 86.5406 16.951C86.5584 16.5975 86.4361 16.5219 86.1048 16.5263Z" fill="#FEFEFE"/>
</g>
<defs>
<clipPath id="clip0_117_148">
<rect width="111.924" height="24" fill="white"/>
</clipPath>
</defs>
</svg>
