<svg
    width="16"
    height="12"
    viewBox="0 0 16 12"
    fill="none"
    xmlns="http://www.w3.org/2000/svg"
  >
    <path
      d="M12.8873 1.14411C12.8831 1.13593 12.8761 1.12951 12.8675 1.12602C11.882 0.673855 10.842 0.351429 9.77359 0.166806C9.76388 0.165002 9.75385 0.166304 9.74493 0.170527C9.736 0.17475 9.72864 0.18168 9.72388 0.19033C9.58226 0.447359 9.45371 0.711371 9.33871 0.981357C8.18698 0.806525 7.01545 0.806525 5.86372 0.981357C5.74796 0.710685 5.61734 0.446608 5.47248 0.19033C5.46751 0.181868 5.4601 0.175098 5.45123 0.170902C5.44236 0.166706 5.43243 0.165279 5.42274 0.166806C4.35418 0.351041 3.31412 0.673492 2.32874 1.12604C2.32031 1.12962 2.31319 1.13572 2.30837 1.14352C0.337811 4.08629 -0.202 6.95671 0.0628132 9.79158C0.0635582 9.79853 0.0656927 9.80525 0.06909 9.81136C0.0724873 9.81747 0.0770779 9.82283 0.0825888 9.82712C1.23003 10.6767 2.51345 11.3252 3.87809 11.7449C3.8877 11.7478 3.89796 11.7477 3.9075 11.7446C3.91703 11.7415 3.92538 11.7355 3.93142 11.7275C4.22452 11.3287 4.48422 10.9064 4.70789 10.4649C4.71097 10.4588 4.71272 10.4522 4.71304 10.4454C4.71336 10.4386 4.71224 10.4318 4.70975 10.4255C4.70726 10.4192 4.70346 10.4135 4.6986 10.4087C4.69374 10.404 4.68793 10.4003 4.68155 10.398C4.27202 10.2413 3.87554 10.0524 3.49584 9.83307C3.48894 9.82902 3.48315 9.82332 3.47897 9.8165C3.4748 9.80968 3.47237 9.80193 3.47189 9.79394C3.47142 9.78595 3.47292 9.77797 3.47626 9.7707C3.47961 9.76344 3.48469 9.7571 3.49106 9.75226C3.57096 9.69258 3.64947 9.63107 3.72653 9.56777C3.73329 9.5622 3.74147 9.55863 3.75015 9.55746C3.75882 9.55629 3.76766 9.55757 3.77565 9.56115C6.26322 10.6964 8.95635 10.6964 11.4145 9.56115C11.4225 9.55734 11.4314 9.55588 11.4402 9.55695C11.449 9.55802 11.4573 9.56156 11.4642 9.56717C11.5414 9.63081 11.6201 9.69252 11.7003 9.75226C11.7067 9.75705 11.7118 9.76335 11.7152 9.77059C11.7186 9.77783 11.7202 9.7858 11.7197 9.79378C11.7193 9.80177 11.717 9.80953 11.7128 9.81639C11.7087 9.82324 11.703 9.82897 11.6961 9.83307C11.3173 10.0542 10.9204 10.243 10.5098 10.3974C10.5034 10.3998 10.4976 10.4036 10.4928 10.4084C10.488 10.4132 10.4842 10.419 10.4818 10.4254C10.4793 10.4317 10.4783 10.4385 10.4787 10.4453C10.479 10.4522 10.4808 10.4588 10.484 10.4649C10.7114 10.9039 10.9707 11.3257 11.2598 11.7268C11.2657 11.735 11.274 11.7412 11.2836 11.7444C11.2932 11.7477 11.3035 11.7478 11.3132 11.7449C12.6803 11.3266 13.9659 10.678 15.1148 9.82712C15.1204 9.82304 15.1251 9.81781 15.1285 9.81178C15.1319 9.80576 15.134 9.79907 15.1346 9.79217C15.4516 6.51477 14.6038 3.66787 12.8873 1.14411ZM5.07939 8.06544C4.33045 8.06544 3.71335 7.37815 3.71335 6.53408C3.71335 5.69001 4.31848 5.00267 5.07939 5.00267C5.84625 5.00267 6.45738 5.69598 6.44541 6.53403C6.44541 7.37815 5.84025 8.06544 5.07939 8.06544ZM10.1301 8.06544C9.38115 8.06544 8.76405 7.37815 8.76405 6.53408C8.76405 5.69001 9.36918 5.00267 10.1301 5.00267C10.897 5.00267 11.5081 5.69598 11.4961 6.53403C11.4961 7.37815 10.897 8.06544 10.1301 8.06544Z"
      fill="white"
    />
  </svg>