<svg
    width="16"
    height="14"
    viewBox="0 0 16 14"
    fill="none"
    xmlns="http://www.w3.org/2000/svg"
  >
    <path
      d="M14.1684 4.22346C14.1684 4.08668 14.1656 3.95144 14.1593 3.81713C14.7695 3.38146 15.299 2.83609 15.7177 2.21202C15.149 2.4572 14.5439 2.61583 13.9242 2.68218C14.5692 2.30186 15.0639 1.69361 15.2976 0.963673C14.6937 1.31462 14.0256 1.56552 13.3154 1.69626C12.7463 1.07576 11.9341 0.680546 11.0363 0.66586C9.31199 0.638546 7.9142 2.03476 7.9142 3.78398C7.9142 4.03261 7.94133 4.27374 7.99521 4.50658C5.39863 4.34648 3.09773 3.05142 1.55861 1.09911C1.29005 1.56686 1.13598 2.11351 1.13598 2.69934C1.13598 3.80736 1.68719 4.79215 2.5247 5.37327C2.01198 5.35105 1.53169 5.20226 1.11042 4.9583V4.99899C1.11042 6.5476 2.18696 7.8451 3.61541 8.14782C3.35354 8.21919 3.07733 8.25633 2.79325 8.255C2.59588 8.25402 2.39915 8.23337 2.20624 8.1934C2.60316 9.46245 3.75674 10.3896 5.12245 10.4205C4.05359 11.2697 2.70714 11.7769 1.24531 11.7734C0.993256 11.7734 0.744185 11.7572 0.5 11.7278C1.88225 12.6363 3.52302 13.1655 5.28683 13.1655C11.0284 13.1668 14.1684 8.37819 14.1684 4.22346Z"
      fill="white"
    />
  </svg>